<svg xmlns="http://www.w3.org/2000/svg" aria-hidden="true" style="position:absolute;width:0;height:0;overflow:hidden"><defs><symbol id="icon-chevron-down" viewBox="0 0 56 32"><path d="M3.01 3.01 1.588 4.434 28 30.846 54.412 4.434l-2.844-2.848L28 25.154 4.432 1.586 3.01 3.01z"/></symbol><symbol id="icon-search" viewBox="0 0 32 32"><path d="M12.307 0c6.784 0 12.308 5.524 12.308 12.308 0 2.948-1.034 5.649-2.769 7.77l9.808 9.806-1.771 1.772-9.807-9.808a12.21 12.21 0 0 1-7.769 2.768c-6.784 0-12.308-5.524-12.308-12.308S5.523 0 12.307 0zm0 2.462c-5.452 0-9.846 4.394-9.846 9.846s4.394 9.846 9.846 9.846 9.846-4.394 9.846-9.846-4.394-9.846-9.846-9.846z"/></symbol><symbol id="icon-menu" viewBox="0 0 32 32"><path d="M19.556 3.556a3.556 3.556 0 1 1-7.112 0 3.556 3.556 0 0 1 7.112 0zM19.556 16a3.556 3.556 0 1 1-7.112 0 3.556 3.556 0 0 1 7.112 0zM19.556 28.444a3.556 3.556 0 1 1-7.112 0 3.556 3.556 0 0 1 7.112 0zM32 3.556a3.556 3.556 0 1 1-7.112 0 3.556 3.556 0 0 1 7.112 0zM32 16a3.556 3.556 0 1 1-7.112 0A3.556 3.556 0 0 1 32 16zM32 28.444a3.556 3.556 0 1 1-7.112 0 3.556 3.556 0 0 1 7.112 0zM7.111 3.556a3.556 3.556 0 1 1-7.112 0 3.556 3.556 0 0 1 7.112 0zM7.111 16a3.556 3.556 0 1 1-7.112 0 3.556 3.556 0 0 1 7.112 0zM7.111 28.444a3.556 3.556 0 1 1-7.112 0 3.556 3.556 0 0 1 7.112 0z"/></symbol><symbol id="icon-youtube" viewBox="0 0 41 32"><path fill="#fff" d="M20.364 0C14.465 0 9.252.624 6.07 1.101A6.266 6.266 0 0 0 .832 6.2C.423 8.482 0 11.819 0 16s.423 7.52.832 9.8a6.262 6.262 0 0 0 5.238 5.101C9.266 31.375 14.496 32 20.364 32s11.1-.624 14.294-1.101a6.258 6.258 0 0 0 5.238-5.099c.409-2.288.832-5.632.832-9.8s-.417-7.512-.832-9.8a6.27 6.27 0 0 0-5.238-5.101C31.477.625 26.262 0 20.364 0zm0 3.2c5.691 0 10.776.594 13.854 1.05.64.093 1.234.39 1.7.848s.778 1.053.894 1.703c.379 2.112.783 5.243.783 9.2 0 3.95-.404 7.088-.783 9.2-.114.65-.426 1.247-.892 1.705s-1.062.754-1.702.845c-3.092.456-8.2 1.05-13.854 1.05-5.655 0-10.769-.594-13.854-1.05-.64-.093-1.235-.389-1.701-.847s-.778-1.054-.893-1.704c-.379-2.112-.783-5.237-.783-9.2 0-3.968.404-7.088.783-9.2.115-.65.427-1.246.893-1.704s1.061-.754 1.701-.847c3.072-.456 8.163-1.05 13.854-1.05zm-4.7 3.65v18.302l2.35-1.35 10.965-6.4L31.329 16l-2.35-1.4-10.965-6.4-2.35-1.35zm3.133 5.5L25.014 16l-6.217 3.65v-7.299z" style="fill:var(--color1, #fff)"/></symbol><symbol id="icon-facebook" viewBox="0 0 32 32"><path fill="#fff" d="M2.909 0A2.93 2.93 0 0 0 0 2.909v26.182A2.93 2.93 0 0 0 2.909 32h26.182A2.93 2.93 0 0 0 32 29.091V2.909A2.93 2.93 0 0 0 29.091 0H2.909zm0 2.909h26.182v26.182h-7.546v-9.818h3.773l.545-4.364h-4.317V12.09c0-1.271.311-2.135 2.135-2.135h2.364V6c-.403-.051-1.801-.137-3.408-.137-3.353 0-5.636 2.017-5.636 5.773v3.273h-3.818v4.364H17v9.818H2.91V2.909z" style="fill:var(--color1, #fff)"/></symbol><symbol id="icon-twitter" viewBox="0 0 41 32"><path fill="#fff" d="M40.727 3.796a17.093 17.093 0 0 1-4.799 1.268A8.156 8.156 0 0 0 39.6.598a17.202 17.202 0 0 1-5.303 1.962C33.152 1.376 31.664.553 30.028.198s-3.345-.227-4.904.368c-1.559.596-2.897 1.631-3.84 2.972s-1.446 2.924-1.445 4.545c0 .635.073 1.25.221 1.839-3.323-.158-6.575-.991-9.543-2.445S4.931 3.981 2.834 1.483a7.808 7.808 0 0 0-1.132 4.063c0 2.8 1.471 5.273 3.718 6.722a8.52 8.52 0 0 1-3.784-1.014v.103c-.001 1.865.666 3.673 1.888 5.117s2.923 2.434 4.815 2.802a8.603 8.603 0 0 1-3.774.141c.534 1.605 1.572 3.008 2.971 4.015s3.088 1.565 4.831 1.598c-1.733 1.315-3.718 2.287-5.84 2.859s-4.34.735-6.528.479a24.219 24.219 0 0 0 12.807 3.633c15.371 0 23.778-12.308 23.778-22.983 0-.344-.014-.699-.027-1.045a16.803 16.803 0 0 0 4.169-4.174v-.002z" style="fill:var(--color1, #fff)"/></symbol><symbol id="icon-instagram" viewBox="0 0 32 32"><path fill="#fff" d="M9.409 0C4.244 0 0 4.239 0 9.409V22.59C0 27.755 4.239 32 9.409 32H22.59c5.165 0 9.41-4.239 9.41-9.41V9.41c0-5.167-4.239-9.411-9.41-9.411H9.409zm0 2.909H22.59a6.498 6.498 0 0 1 4.599 1.901c.604.604 1.082 1.321 1.409 2.11s.494 1.635.492 2.489V22.59a6.498 6.498 0 0 1-1.901 4.599c-.604.604-1.321 1.082-2.11 1.409s-1.635.494-2.489.492H9.41a6.498 6.498 0 0 1-4.6-1.901 6.489 6.489 0 0 1-1.902-4.599V9.41a6.498 6.498 0 0 1 1.901-4.6 6.489 6.489 0 0 1 4.599-1.902zM24.59 6.092a1.306 1.306 0 0 0-.933.385 1.325 1.325 0 0 0-.385.933c0 .733.585 1.318 1.318 1.318a1.314 1.314 0 0 0 1.221-1.824 1.292 1.292 0 0 0-.286-.428 1.329 1.329 0 0 0-.935-.383zM16 7.273c-4.8 0-8.727 3.927-8.727 8.727S11.2 24.727 16 24.727c4.8 0 8.727-3.927 8.727-8.727S20.8 7.273 16 7.273zm0 2.909c3.233 0 5.818 2.585 5.818 5.818S19.233 21.818 16 21.818c-3.233 0-5.818-2.585-5.818-5.818s2.585-5.818 5.818-5.818z" style="fill:var(--color1, #fff)"/></symbol><symbol id="icon-arrow-left" viewBox="0 0 55 32"><path fill="#233000" d="m15.73 1.123 3.118 3.186-9.484 9.477h44.425v4.429H9.364l9.482 9.479-3.115 3.184L.858 16 15.731 1.122z" style="fill:var(--color2, #233000)"/></symbol><symbol id="icon-arrow-right" viewBox="0 0 55 32"><path fill="#233000" d="m38.916 1.122-3.118 3.186 9.484 9.477H.857v4.429h44.425L35.8 27.693l3.115 3.184 14.873-14.878L38.915 1.121z" style="fill:var(--color2, #233000)"/></symbol><symbol id="icon-lemon" viewBox="0 0 32 32"><path d="M12 4C9.418 4 7.121 5.438 5.531 7.625S3 12.765 3 16c0 3.234.941 6.188 2.531 8.375C7.121 26.563 9.418 28 12 28c8.23 0 12.617-4.707 13.688-9.656C26.44 17.8 27 16.996 27 16s-.559-1.8-1.313-2.344C24.56 8.582 19.313 4 12 4zm0 2c1.836 0 3.54 1.016 4.844 2.813C18.148 10.608 19 13.16 19 16s-.852 5.39-2.156 7.188C15.539 24.983 13.836 26 12 26s-3.54-1.016-4.844-2.813C5.852 21.392 5 18.84 5 16s.852-5.39 2.156-7.188C8.461 7.016 10.164 6 12 6zm6.375 1.531c3.04 1.61 4.992 4.258 5.469 6.844l.093.5.47.219c.347.16.593.496.593.906s-.246.746-.594.906l-.468.219-.094.5c-.532 2.895-2.278 5.734-5.782 7.25.137-.164.278-.324.407-.5C20.059 22.187 21 19.235 21 16s-.941-6.188-2.531-8.375c-.028-.035-.067-.059-.094-.094zM12 8c-.715 0-1.387.258-2 .688l2.031 4.78 2.063-4.75C13.46 8.255 12.742 8 12 8zm-3.5 2.281c-.785 1.23-1.324 2.88-1.469 4.719H10.5l-2-4.719zm7.063.094L13.53 15h3.438c-.14-1.797-.649-3.402-1.407-4.625h.002zM7.03 17c.14 1.797.649 3.402 1.406 4.625L10.47 17H7.03zm6.469 0 2 4.719c.785-1.23 1.324-2.88 1.469-4.719h-3.469zm-1.531 1.531-2.063 4.75c.633.465 1.352.719 2.094.719.715 0 1.387-.258 2-.688l-2.031-4.781z"/></symbol><symbol id="icon-carrot" viewBox="0 0 32 32"><path d="M22.875 3.156 21.75 4.812s.613.477.906 1.157c.254.597.438 1.297-.531 2.468l-.875.876c-2.945-2.508-5.938-2.626-5.938-2.626h-.562l-.313.5s-2.55 4.336-5 8.813C8.212 18.238 7 20.516 6.158 22.313c-.423.898-.755 1.68-.97 2.312-.105.316-.18.582-.218.875-.04.293-.149.695.343 1.188.493.492.895.382 1.188.343s.559-.113.875-.218c.633-.215 1.414-.547 2.313-.97C11.483 25 13.761 23.79 16 22.564c4.473-2.454 8.813-5 8.813-5l.5-.313v-.594s-.133-2.957-2.625-5.906l.343-.375c.086-.086.164-.145.25-.219l.25-.219c1.18-.906 2.297-.87 3.282-.624a5.794 5.794 0 0 1 1.906.874l1.25-1.562s-1.11-.855-2.688-1.25a6.342 6.342 0 0 0-1.062-.156l2.031-2.032-1.438-1.437-2.093 2.094a3.696 3.696 0 0 0-.219-.688c-.563-1.312-1.625-2-1.625-2v-.001zm-7.063 5.656c.657.063 2.536.336 4.782 2.594 2.25 2.266 2.527 4.13 2.593 4.781-.164.098-1.019.614-1.687 1a11.627 11.627 0 0 0-1.313-2.218l-1.593 1.219c.703.937.992 1.582 1.156 2a349.904 349.904 0 0 1-4.719 2.625c-.097.05-.183.105-.281.156A7.356 7.356 0 0 0 13.719 19l-1.625 1.156c.492.688.734 1.254.844 1.625.019.063.019.078.03.125-1.495.801-2.94 1.57-4.124 2.125-.617.29-1.055.45-1.5.625.176-.445.336-.883.625-1.5.808-1.722 2.004-3.968 3.218-6.187.586-1.07 1.032-1.871 1.563-2.813.32.281.734.66 1.188 1.25l1.562-1.219a10.317 10.317 0 0 0-1.75-1.812c1.047-1.836 1.883-3.254 2.063-3.563h-.001z"/></symbol><symbol id="icon-fish" viewBox="0 0 32 32"><path d="m10.5 5.5.563 1.375c.351.855.828 2.992.718 4-1.363.84-2.199 1.66-2.844 2.344C8.149 12.582 6.59 11.5 4 11.5H3v1c0 1.914.691 3.469.938 4-.25.527-.938 2.027-.938 4v1h1c2.57 0 4.148-1.086 4.938-1.719 1.183 1.219 2.87 2.504 5 3.469-.094.621-.168 1.488.093 2.5l.188.75H15c1.234 0 2.297-.613 3.156-1.156.703-.446 1.043-.758 1.219-.907 3.977-.14 6.516-2.285 7.875-4.406C28.656 17.84 29 15.656 29 15.656l.031-.25-.093-.25s-2.29-6.289-8.5-6.594c-.66-.8-1.583-1.464-2.875-2C16.035 5.93 14.113 5.5 12 5.5h-1.5zm2.906 2.125c1.262.14 2.442.395 3.375.781 1.278.528 2.168 1.285 2.375 1.625l.282.469H20c4.996 0 6.793 4.73 6.938 5.125-.07.367-.36 1.762-1.375 3.344C24.402 20.777 22.523 22.5 19 22.5h-.375l-.281.25s-.528.45-1.25.906c-.38.239-.703.282-1.094.438.04-.457 0-1.125 0-1.125l.219-.875-.813-.282c-2.476-.945-4.582-2.726-5.656-3.968l-.688-.813-.75.75s-1.332.934-3.062 1.375c.258-1.172.656-2.218.656-2.218l.219-.438-.219-.438s-.433-1.148-.687-2.375c1.843.407 3.093 1.532 3.093 1.532l.75.75.688-.813c.895-1.011 3.305-3.531 6.844-4l-.282-1.969c-.957.126-1.792.403-2.593.72-.051-.84-.094-1.563-.313-2.282zM22.5 14.5A1.503 1.503 0 0 0 21 16a1.503 1.503 0 0 0 1.5 1.5A1.503 1.503 0 0 0 24 16a1.503 1.503 0 0 0-1.5-1.5z"/></symbol><symbol id="icon-logo" viewBox="0 0 85 32"><path fill="#fff" d="M15.861.557h52.313v6.957h.557V.001H15.305v7.513h.557V.557zm0 23.652h-.557V32H68.73v-7.791h-.557v7.235H15.86v-7.235zM4.107 15.12v5.366l1.632.172v.46H.001v-.46l1.631-.172V8.948L.001 8.737v-.441h9.564v2.741h-.6l-.713-2.032-4.144-.057v5.481h3.657l.581-1.418h.544v3.565h-.563l-.563-1.457H4.107zM19.229 19.95c-.875.92-2.069 1.38-3.582 1.38s-2.707-.46-3.582-1.38c-.875-.92-1.313-2.089-1.313-3.507s.438-2.587 1.313-3.507c.875-.92 2.069-1.38 3.582-1.38s2.707.46 3.582 1.38c.875.92 1.313 2.089 1.313 3.507s-.438 2.587-1.313 3.507zm-5.87-3.507c0 2.952.763 4.427 2.288 4.427s2.288-1.476 2.288-4.427c0-1.444-.169-2.536-.506-3.277-.338-.754-.931-1.131-1.782-1.131s-1.444.377-1.782 1.131c-.338.741-.506 1.834-.506 3.277zM30.473 19.95c-.875.92-2.069 1.38-3.582 1.38s-2.707-.46-3.582-1.38c-.875-.92-1.313-2.089-1.313-3.507s.438-2.587 1.313-3.507c.875-.92 2.069-1.38 3.582-1.38s2.707.46 3.582 1.38c.875.92 1.313 2.089 1.313 3.507s-.437 2.587-1.313 3.507zm-5.869-3.507c0 2.952.763 4.427 2.288 4.427s2.288-1.476 2.288-4.427c0-1.444-.169-2.536-.506-3.277-.338-.754-.931-1.131-1.782-1.131s-1.444.377-1.782 1.131c-.338.741-.506 1.834-.506 3.277z" style="fill:var(--color1, #fff)"/><path fill="#fff" d="M37.217 21.407c-1.138 0-2.082-.39-2.832-1.169s-1.125-1.955-1.125-3.527.444-2.811 1.331-3.718c.9-.907 2.094-1.361 3.582-1.361a4.55 4.55 0 0 1 2.194.556V7.32l-1.613-.115v-.479l4.013-.326v14.279l1.594.077.019.441-3.919.23.038-1.725h-.113a3.302 3.302 0 0 1-1.331 1.265 3.982 3.982 0 0 1-1.838.441zm3.132-3.239v-5.271c-.5-.473-1.138-.709-1.913-.709-.988 0-1.663.466-2.025 1.399-.3.818-.45 1.859-.45 3.124 0 2.722.594 4.082 1.781 4.082.7 0 1.306-.307 1.819-.92.525-.613.788-1.182.788-1.706zM45.296 11.134V8.317l10.914-.038v.594l-8.101 11.27 6.77.038.656-2.108h.619v2.798l-11.121.038v-.537l8.176-11.327-6.638-.038-.656 2.127h-.619zM63.862 14.431c0-1.559-.531-2.338-1.594-2.338-1.113 0-1.788.997-2.025 2.99h3.582a6.85 6.85 0 0 0 .037-.652zm-1.763 6.899c-1.338 0-2.425-.447-3.263-1.342-.825-.894-1.238-2.076-1.238-3.546s.431-2.651 1.294-3.546c.875-.894 1.981-1.342 3.319-1.342s2.338.294 3 .882c.663.575.994 1.38.994 2.415 0 .294-.025.601-.075.92h-5.945v.671c0 1.431.175 2.517.525 3.258.35.728.875 1.092 1.575 1.092.713 0 1.357-.147 1.932-.441a3.361 3.361 0 0 0 1.369-1.284c.275.089.412.224.412.402 0 .319-.294.69-.881 1.112-.288.204-.7.383-1.238.537a6.882 6.882 0 0 1-1.782.211zM71.009 14.028c.213-.69.6-1.278 1.163-1.763.575-.486 1.094-.728 1.556-.728.475 0 .794.121.956.364.162.23.244.422.244.575 0 .524-.188.901-.562 1.131-.25-.204-.625-.307-1.125-.307-.487 0-.975.16-1.463.479-.487.307-.731.645-.731 1.016v5.769l1.688.115v.441h-5.232v-.441l1.238-.096v-8.184l-1.519-.077v-.441l3.826-.211-.112 2.357h.075zM84.113 19.95c-.875.92-2.069 1.38-3.582 1.38s-2.707-.46-3.582-1.38-1.313-2.089-1.313-3.507c0-1.418.437-2.587 1.313-3.507s2.069-1.38 3.582-1.38 2.707.46 3.582 1.38 1.313 2.089 1.313 3.507c0 1.418-.438 2.587-1.313 3.507zm-5.869-3.507c0 2.952.763 4.427 2.288 4.427s2.288-1.476 2.288-4.427c0-1.444-.169-2.536-.506-3.277-.338-.754-.932-1.131-1.782-1.131s-1.444.377-1.781 1.131c-.338.741-.506 1.834-.506 3.277z" style="fill:var(--color1, #fff)"/></symbol></defs></svg>